<svg width="17" height="16" viewBox="0 0 17 16" fill="none" xmlns="http://www.w3.org/2000/svg">
<path fill-rule="evenodd" clip-rule="evenodd" d="M10.1176 11.0317C9.23155 11.6424 8.15754 12 7 12C3.96243 12 1.5 9.53757 1.5 6.5C1.5 3.46243 3.96243 1 7 1C10.0376 1 12.5 3.46243 12.5 6.5C12.5 7.65746 12.1425 8.73141 11.5318 9.61744L15.5011 13.5868L14.0869 15.001L10.1176 11.0317ZM10.5 6.5C10.5 8.433 8.933 10 7 10C5.067 10 3.5 8.433 3.5 6.5C3.5 4.567 5.067 3 7 3C8.933 3 10.5 4.567 10.5 6.5Z" fill="#F6FBFD" fill-opacity="0.35"/>
</svg>
