<svg width="11" height="11" viewBox="0 0 11 11" fill="none" xmlns="http://www.w3.org/2000/svg">
<path fill-rule="evenodd" clip-rule="evenodd" d="M7.2028 7.65995C6.52546 8.18647 5.67434 8.5 4.75 8.5C2.54086 8.5 0.75 6.70914 0.75 4.5C0.75 2.29086 2.54086 0.5 4.75 0.5C6.95914 0.5 8.75 2.29086 8.75 4.5C8.75 5.42437 8.43645 6.2755 7.90991 6.95285L10.754 9.7969L10.0469 10.504L7.2028 7.65995ZM7.75 4.5C7.75 6.15685 6.40685 7.5 4.75 7.5C3.09315 7.5 1.75 6.15685 1.75 4.5C1.75 2.84315 3.09315 1.5 4.75 1.5C6.40685 1.5 7.75 2.84315 7.75 4.5Z" fill="white"/>
</svg>
